<svg width="20" height="19" viewBox="0 0 20 19" fill="none" xmlns="http://www.w3.org/2000/svg">
<path fill-rule="evenodd" clip-rule="evenodd" d="M13.6288 1.30081H16.5186C17.7142 1.30081 18.6841 2.22724 18.6841 3.37012V6.12948C18.6841 7.2715 17.7142 8.19879 16.5186 8.19879H13.6288C12.4323 8.19879 11.4624 7.2715 11.4624 6.12948V3.37012C11.4624 2.22724 12.4323 1.30081 13.6288 1.30081Z" stroke="#808191" stroke-width="1.5" stroke-linecap="round" stroke-linejoin="round"/>
<path fill-rule="evenodd" clip-rule="evenodd" d="M3.15811 1.30081H6.04695C7.24346 1.30081 8.21336 2.22724 8.21336 3.37012V6.12948C8.21336 7.2715 7.24346 8.19879 6.04695 8.19879H3.15811C1.9616 8.19879 0.991699 7.2715 0.991699 6.12948V3.37012C0.991699 2.22724 1.9616 1.30081 3.15811 1.30081Z" stroke="#808191" stroke-width="1.5" stroke-linecap="round" stroke-linejoin="round"/>
<path fill-rule="evenodd" clip-rule="evenodd" d="M3.15817 11.1573H6.04701C7.24352 11.1573 8.21342 12.0838 8.21342 13.2275V15.986C8.21342 17.1289 7.24352 18.0553 6.04701 18.0553H3.15817C1.96166 18.0553 0.99176 17.1289 0.99176 15.986V13.2275C0.99176 12.0838 1.96166 11.1573 3.15817 11.1573Z" stroke="#808191" stroke-width="1.5" stroke-linecap="round" stroke-linejoin="round"/>
<path fill-rule="evenodd" clip-rule="evenodd" d="M13.6291 11.1573H16.5188C17.7144 11.1573 18.6843 12.0838 18.6843 13.2275V15.986C18.6843 17.1289 17.7144 18.0553 16.5188 18.0553H13.6291C12.4325 18.0553 11.4626 17.1289 11.4626 15.986V13.2275C11.4626 12.0838 12.4325 11.1573 13.6291 11.1573Z" stroke="#808191" stroke-width="1.5" stroke-linecap="round" stroke-linejoin="round"/>
</svg>
