<svg width="21" height="19" viewBox="0 0 21 19" fill="none" xmlns="http://www.w3.org/2000/svg">
<path d="M13.3946 7.73942C13.3946 8.60598 12.3324 9.37969 10.7147 9.8594C9.74566 10.118 8.74689 10.2635 7.74059 10.2927C7.55575 10.3081 7.36983 10.3081 7.18499 10.2927C3.76969 10.2927 0.991699 9.13211 0.991699 7.70847C0.991699 6.28484 3.76969 5.12426 7.18499 5.12426H7.74059C8.01839 5.12426 8.27985 5.12426 8.5413 5.12426C10.0011 5.24113 11.4008 5.72749 12.5939 6.53242C12.8123 6.66606 12.9972 6.84337 13.1355 7.05189C13.2739 7.26041 13.3623 7.49508 13.3946 7.73942V7.73942Z" stroke="#808191" stroke-width="1.5" stroke-linecap="round" stroke-linejoin="round"/>
<path d="M13.3948 7.73764V11.436C13.3948 12.38 12.2019 13.1846 10.4044 13.6334C9.33706 13.8948 8.2386 14.0248 7.13616 14.0202C4.30914 14.0202 1.92334 13.231 1.18799 12.1633" stroke="#808191" stroke-width="1.5" stroke-linecap="round" stroke-linejoin="round"/>
<path d="M13.3946 11.4367V15.2898C13.3946 16.7289 10.6166 17.874 7.18499 17.874C3.75335 17.874 0.991699 16.7289 0.991699 15.2898" stroke="#808191" stroke-width="1.5" stroke-linecap="round" stroke-linejoin="round"/>
<path d="M8.10023 4.82975C7.88122 4.58721 7.75461 4.28203 7.74072 3.96318C7.74072 2.53954 10.5187 1.37896 13.9504 1.37896C17.382 1.37896 20.1436 2.53954 20.1436 3.96318C20.1436 5.38682 17.3656 6.53192 13.9504 6.53192C13.4986 6.55547 13.0458 6.55547 12.594 6.53192" stroke="#808191" stroke-width="1.5" stroke-linecap="round" stroke-linejoin="round"/>
<path d="M13.395 14.0831H13.9506C17.3659 14.0831 20.1439 12.938 20.1439 11.5143" stroke="#808191" stroke-width="1.5" stroke-linecap="round" stroke-linejoin="round"/>
<path d="M13.395 10.2305H13.9506C17.3659 10.2305 20.1439 9.06996 20.1439 7.6618" stroke="#808191" stroke-width="1.5" stroke-linecap="round" stroke-linejoin="round"/>
<path d="M20.1431 11.5142V7.6611V3.96273" stroke="#808191" stroke-width="1.5" stroke-linecap="round" stroke-linejoin="round"/>
<path d="M0.991699 15.2891V7.73764" stroke="#808191" stroke-width="1.5" stroke-linecap="round" stroke-linejoin="round"/>
</svg>
