<svg width="21" height="20" viewBox="0 0 21 20" fill="none" xmlns="http://www.w3.org/2000/svg">
<path d="M10.4882 15.7327V5.40222H11.1871V15.7327H10.4882ZM12.6743 8.60627C12.6289 8.22426 12.4414 7.92834 12.1118 7.7185C11.7823 7.50597 11.3675 7.39971 10.8675 7.39971C10.5096 7.39971 10.1999 7.45351 9.93853 7.56112C9.67717 7.66604 9.47404 7.81131 9.32916 7.99694C9.18711 8.17987 9.11609 8.38837 9.11609 8.62242C9.11609 8.8188 9.16438 8.98828 9.26098 9.13087C9.36041 9.27345 9.48967 9.39316 9.64876 9.49001C9.81069 9.58417 9.98399 9.66353 10.1686 9.7281C10.3533 9.78997 10.5309 9.84108 10.7013 9.88144L11.5536 10.0913C11.832 10.1558 12.1175 10.2433 12.4101 10.3536C12.7027 10.4639 12.974 10.6091 13.224 10.7894C13.474 10.9696 13.6757 11.1929 13.8292 11.4593C13.9854 11.7256 14.0635 12.0444 14.0635 12.4156C14.0635 12.8837 13.9357 13.2994 13.68 13.6625C13.4272 14.0257 13.0593 14.3122 12.5763 14.5221C12.0962 14.7319 11.5152 14.8368 10.8334 14.8368C10.18 14.8368 9.61467 14.7386 9.1374 14.5422C8.66012 14.3459 8.28654 14.0674 8.01666 13.7069C7.74677 13.3438 7.59762 12.9133 7.56921 12.4156H8.89024C8.91581 12.7142 9.01808 12.9631 9.19706 13.1622C9.37887 13.3585 9.61041 13.5052 9.89166 13.602C10.1757 13.6962 10.4868 13.7432 10.8249 13.7432C11.1971 13.7432 11.528 13.6881 11.8178 13.5778C12.1104 13.4648 12.3405 13.3088 12.5081 13.1097C12.6757 12.9079 12.7596 12.6725 12.7596 12.4035C12.7596 12.1587 12.6857 11.9583 12.538 11.8023C12.3931 11.6462 12.1956 11.5171 11.9456 11.4149C11.6985 11.3126 11.4186 11.2225 11.1061 11.1445L10.0749 10.8782C9.37603 10.6979 8.82206 10.4329 8.41296 10.0832C8.00671 9.73348 7.80359 9.27076 7.80359 8.69505C7.80359 8.21888 7.93995 7.80324 8.21268 7.44813C8.48541 7.09302 8.85473 6.81728 9.32063 6.62089C9.78654 6.42182 10.3121 6.32228 10.8973 6.32228C11.4882 6.32228 12.0096 6.42047 12.4613 6.61686C12.9158 6.81324 13.2738 7.08361 13.5351 7.42796C13.7965 7.76962 13.9329 8.16239 13.9442 8.60627H12.6743Z" fill="#808191"/>
<path d="M4.77795 4.49101C5.06953 4.49101 5.36055 4.48633 5.65158 4.49205C6.03375 4.49932 6.27151 4.71711 6.26822 5.04666C6.26492 5.37049 6.01728 5.59192 5.63895 5.594C4.88832 5.59764 4.1377 5.59816 3.38707 5.594C3.0049 5.59192 2.76274 5.37829 2.75725 5.01547C2.74627 4.28777 2.74627 3.56006 2.75835 2.83236C2.76384 2.49553 3.02302 2.26631 3.34863 2.26838C3.6737 2.27046 3.91751 2.50125 3.93288 2.83911C3.94386 3.07874 3.93508 3.31992 3.93508 3.62556C4.05917 3.51744 4.13495 3.44831 4.21347 3.38281C7.08583 0.991781 10.3876 0.250041 14.0177 1.35875C17.6264 2.46123 19.8536 4.87617 20.7031 8.38059C21.1511 10.2295 20.9441 12.0456 20.2111 13.8088C20.0749 14.1362 19.8443 14.2901 19.5576 14.2542C19.1513 14.2033 18.9404 13.8436 19.103 13.4527C19.4566 12.6002 19.6696 11.7213 19.7328 10.8054C20.0019 6.8836 17.2283 3.22844 13.1869 2.27566C10.0927 1.5464 7.33952 2.22888 4.95641 4.23891C4.88228 4.30128 4.79223 4.3465 4.70931 4.40004C4.73238 4.43019 4.75489 4.46034 4.77795 4.49101Z" fill="#808191"/>
<path d="M17.1527 16.1366C16.883 16.1366 16.6129 16.1387 16.3433 16.1361C15.9221 16.1319 15.6574 15.9209 15.6509 15.5877C15.6443 15.243 15.9133 15.0201 16.3488 15.0185C17.0538 15.0159 17.7583 15.0154 18.4634 15.0185C18.9466 15.0206 19.1651 15.2306 19.1657 15.688C19.1668 16.3637 19.1679 17.0395 19.1651 17.7152C19.164 18.1092 18.9323 18.3498 18.5671 18.3441C18.213 18.3384 18.0038 18.1092 17.9988 17.7173C17.9961 17.4948 17.9983 17.2718 17.9983 16.9989C17.9 17.0769 17.8401 17.1221 17.783 17.1699C14.8783 19.5989 11.5392 20.3698 7.86072 19.2221C4.15867 18.0671 1.93644 15.5518 1.16935 11.9356C0.798701 10.1896 1.02164 8.47016 1.71131 6.81047C1.85408 6.46689 2.07372 6.32862 2.39275 6.36968C2.77547 6.41958 2.95668 6.77616 2.83148 7.16341C2.6371 7.76585 2.40922 8.3662 2.29995 8.98372C1.57623 13.0922 4.21577 17.1148 8.44442 18.262C11.6259 19.1254 14.4835 18.4637 16.966 16.3819C17.039 16.3206 17.1285 16.2774 17.2103 16.226C17.1911 16.1963 17.1719 16.1667 17.1527 16.1366Z" fill="#808191"/>
<rect x="10.5063" y="5.97818" width="0.71814" height="9.34189" fill="#808191"/>
</svg>
