<svg width="21" height="20" viewBox="0 0 21 20" fill="none" xmlns="http://www.w3.org/2000/svg">
<path d="M4.04169 10.3486V10.8486H4.54169H5.84171C6.00159 10.8486 6.09171 10.972 6.09171 11.0588V16.6648C6.09171 16.7516 6.00159 16.875 5.84171 16.875H4.54169H4.04169V17.375V18.6723C4.04169 18.7591 3.95157 18.8826 3.79169 18.8826C3.6318 18.8826 3.54169 18.7591 3.54169 18.6723V17.375V16.875H3.04169H1.7417C1.58182 16.875 1.4917 16.7516 1.4917 16.6648V11.0588C1.4917 10.972 1.58182 10.8486 1.7417 10.8486H3.04169H3.54169V10.3486V7.85809C3.54169 7.77131 3.6318 7.64787 3.79169 7.64787C3.95157 7.64787 4.04169 7.77131 4.04169 7.85809V10.3486Z" stroke="#808191"/>
<path d="M11.262 4.90246V5.40246H11.762H13.012C13.1718 5.40246 13.262 5.5259 13.262 5.61268V14.7224C13.262 14.8092 13.1718 14.9326 13.012 14.9326H11.772H11.272V15.4326V16.73C11.272 16.8167 11.1819 16.9402 11.022 16.9402C10.8621 16.9402 10.772 16.8167 10.772 16.73V15.4326V14.9326H10.272H9.02197C8.86209 14.9326 8.77197 14.8092 8.77197 14.7224V5.61268C8.77197 5.5259 8.86209 5.40246 9.02197 5.40246H10.262H10.762V4.90246V1.98584C10.762 1.89905 10.8521 1.77562 11.012 1.77562C11.1718 1.77562 11.262 1.89905 11.262 1.98584V4.90246Z" stroke="#808191"/>
<path d="M18.4421 2.34674V2.84674H18.9421H20.2421C20.402 2.84674 20.4921 2.97017 20.4921 3.05695V11.9962C20.4921 12.083 20.402 12.2064 20.2421 12.2064H18.9421H18.4421V12.7064V14.7234C18.4421 14.8102 18.352 14.9337 18.1921 14.9337C18.0322 14.9337 17.9421 14.8102 17.9421 14.7234V12.7064V12.2064H17.4421H16.1421C15.9822 12.2064 15.8921 12.083 15.8921 11.9962V3.05695C15.8921 2.97017 15.9822 2.84674 16.1421 2.84674H17.4421H17.9421V2.34674V1.15358C17.9421 1.06679 18.0322 0.943359 18.1921 0.943359C18.352 0.943359 18.4421 1.06679 18.4421 1.15358V2.34674Z" stroke="#808191"/>
</svg>
